<?xml version="1.0"?>
<svg width="182" height="42" xmlns="http://www.w3.org/2000/svg" xmlns:svg="http://www.w3.org/2000/svg">
 <g class="layer">
  <title>Layer 1</title>
  <path d="m92.23,15.86c-3.9,0 -4.78,2.54 -4.78,4.89c0,2.31 0.88,4.85 4.78,4.85s4.78,-2.54 4.78,-4.85c0,-2.35 -0.88,-4.89 -4.78,-4.89" id="svg_1"/>
  <path d="m127.84,15.86c-3.9,0 -4.78,2.54 -4.78,4.89c0,2.31 0.88,4.85 4.78,4.85s4.78,-2.54 4.78,-4.85c0,-2.35 -0.88,-4.89 -4.78,-4.89" id="svg_2"/>
  <path d="m52.76,24.81c0,0.91 1.43,1.82 3.41,1.82c2.47,0 4.39,-1.02 4.56,-3.07l0,-1.82c-1.32,0.45 -2.8,0.72 -4.29,0.95c-2.42,0.38 -3.68,0.79 -3.68,2.12" id="svg_3"/>
  <path d="m157.57,24.81c0,0.91 1.43,1.82 3.41,1.82c2.47,0 4.39,-1.02 4.56,-3.07l0,-1.82c-1.32,0.45 -2.81,0.72 -4.29,0.95c-2.42,0.38 -3.68,0.79 -3.68,2.12" id="svg_4"/>
  <path d="m180.67,27.44c-0.04,-0.14 -0.09,-0.47 -0.09,-1.27l0,-8.16c0,-2.21 0,-5.91 -3.32,-8.72c-2.84,-2.41 -7.4,-3.48 -14.79,-3.48c-4.79,0 -8.35,0.44 -11.19,1.38c-3.3,1.09 -5.28,2.78 -6.44,4.51c-2.77,-3.44 -7.26,-5.89 -13.32,-5.89c-2.8,0 -4.91,0.36 -6.57,0.9c-0.57,-0.26 -1.21,-0.41 -1.89,-0.41l-10.5,0c-2.35,0 -4.29,1.78 -4.55,4.07c-2.8,-2.72 -6.86,-4.56 -12.1,-4.56c-2.8,0 -4.91,0.36 -6.57,0.9c-0.58,-0.26 -1.22,-0.41 -1.89,-0.41l-10.5,0c-2.02,0 -3.73,1.31 -4.35,3.13c-0.05,-0.05 -0.09,-0.1 -0.14,-0.14c-2.85,-2.41 -7.41,-3.48 -14.8,-3.48c-4.79,0 -8.34,0.44 -11.19,1.38c-6.66,2.2 -7.92,6.82 -8.07,9.38c-0.05,0.98 0.2,1.94 0.72,2.76c-0.73,0.88 -1.21,1.8 -1.52,2.68l-5.73,-7l8.41,-6.86a4.59,4.59 0 0 0 1.43,-5.1a4.6,4.6 0 0 0 -4.33,-3.05l-12.61,0a4.64,4.64 0 0 0 -3.06,1.16l-2.06,1.85a4.6,4.6 0 0 0 -4.31,-3.01l-10.76,0c-2.53,0 -4.58,2.06 -4.58,4.59l0,25.96c0,2.54 2.05,4.59 4.58,4.59l10.76,0a4.59,4.59 0 0 0 4.59,-4.59l0,-0.09l2.19,2.87a4.57,4.57 0 0 0 3.65,1.81l12.9,0c1.41,0 2.67,-0.64 3.51,-1.64c2.28,1.31 5.39,2.15 9.54,2.15c2.91,0 5.41,-0.34 7.55,-1.02c0.64,0.34 1.37,0.52 2.13,0.52l10.96,0l0,1.78c0,2.53 2.06,4.59 4.59,4.59l10.88,0a4.59,4.59 0 0 0 4.59,-4.59l0,-1.56c1.07,0.18 2.18,0.28 3.33,0.28c5.6,0 9.56,-1.65 12.22,-4.09l0,5.37c0,2.53 2.06,4.59 4.59,4.59l10.89,0c2.53,0 4.59,-2.06 4.59,-4.59l0,-1.56c1.06,0.18 2.18,0.28 3.32,0.28c5.96,0 10.06,-1.87 12.71,-4.56c2.18,2.6 6.12,4.56 12.46,4.56c2.91,0 5.41,-0.34 7.55,-1.02c0.64,0.34 1.37,0.52 2.12,0.52l11.11,0c1.84,0 3.5,-1.1 4.22,-2.8c0.71,-1.66 0.37,-3.59 -0.86,-4.91m-154.9,3.11l-7.88,-10.35l-2.55,2.13l0,8.22l-10.75,0l0,-25.96l10.75,0l0,8.4l9.43,-8.4l12.61,0l-11.98,9.77l13.26,16.19l-12.89,0zm35.63,0.01c-0.28,-0.53 -0.44,-1.32 -0.39,-1.85l-0.11,0c-2.31,1.81 -5.66,2.35 -9.18,2.35c-5.49,0 -10.05,-1.82 -10.05,-5.95c0,-6.22 10.55,-5.99 16.1,-6.71c1.48,-0.19 2.97,-0.49 2.97,-1.74c0,-1.33 -1.82,-1.82 -3.58,-1.82c-3.35,0 -4.01,1.17 -4.06,2l-10.12,0c0.34,-5.53 7.92,-6.44 14.68,-6.44c13.63,0 13.52,3.9 13.52,7.69l0,8.08c0,1.48 0.11,3.14 1.32,4.39l-11.1,0zm34.35,0.5c-3.25,0 -6.16,-0.99 -7.81,-2.66l-0.11,0l0,8.53l-10.88,0l0,-26.04l10.5,0l0,2.16l0.11,0c1.37,-1.25 3.02,-2.65 8.35,-2.65c8.08,0 11.98,5.5 11.98,10.42c0,4.63 -2.58,10.24 -12.14,10.24m35.61,0c-3.24,0 -6.16,-0.99 -7.8,-2.66l-0.11,0l0,8.53l-10.89,0l0,-26.04l10.5,0l0,2.16l0.11,0c1.37,-1.25 3.02,-2.65 8.35,-2.65c8.08,0 11.98,5.5 11.98,10.42c0,4.63 -2.58,10.24 -12.14,10.24m34.84,-0.5c-0.27,-0.53 -0.44,-1.32 -0.38,-1.85l-0.11,0c-2.31,1.81 -5.66,2.35 -9.18,2.35c-5.49,0 -10.06,-1.82 -10.06,-5.95c0,-6.22 10.55,-5.99 16.11,-6.71c1.48,-0.19 2.96,-0.49 2.96,-1.74c0,-1.33 -1.81,-1.82 -3.57,-1.82c-3.35,0 -4.01,1.17 -4.06,2l-10.12,0c0.33,-5.53 7.92,-6.44 14.68,-6.44c13.63,0 13.52,3.9 13.52,7.69l0,8.08c0,1.48 0.11,3.14 1.32,4.39l-11.11,0z" id="svg_5"/>
 </g>
</svg>